<svg xmlns="http://www.w3.org/2000/svg" xmlns:xlink="http://www.w3.org/1999/xlink" width="37.281" height="35.755" viewBox="0 0 37.281 35.755">
  <defs>
    <clipPath id="clip-path">
      <path id="路径_1161" data-name="路径 1161" d="M1.858,13.559a14.143,14.143,0,0,0-1.72,2.73c-.737,1.893.9,3.44,1.62,4.468.273.391.519,1.11.8,1.438q4.627-1.856,9.264-3.713c.646-.255,2.8-.846,2.894-1.5.091-.719-2.148-1.192-2.748-1.383q-4.737-1.57-9.473-3.149a3.836,3.836,0,0,1-.637,1.11m22.314,1.947c-.673.237-2.83.683-2.939,1.338-.118.728,2.175,1.338,2.748,1.574q4.668,1.884,9.337,3.758c.091-.2.191-.41.282-.61.182-.282.364-.564.537-.846A7.554,7.554,0,0,0,35.9,17.645c.282-1.611-1.183-3.049-1.784-3.9-.255-.446-.519-.892-.774-1.338q-4.587,1.556-9.173,3.1m-2.12-3.313c-.309.437-1.847,2.184-1.438,2.748.337.464,2.539-.218,3.194-.4q4.723-1.16,9.455-2.33c-.073-.464-.137-.928-.209-1.383v-1.2A6.747,6.747,0,0,0,32.7,7.089c-.646-1.447-2.284-1.62-3.8-2.211-.455-.2-.91-.391-1.365-.592q-2.73,3.959-5.478,7.908M7.1,4.814c-1.32.473-2.912.783-3.667,1.829-.9,1.256-.273,3.849-.819,5.506.1.173.546.182.755.237.664.164,1.329.328,2,.491,2.384.6,4.769,1.21,7.144,1.811.61.173,2.466.792,2.794.309.373-.537-1.083-2.266-1.365-2.685Q11.117,8.286,8.3,4.268a3.392,3.392,0,0,1-1.2.546M12.933.036c-.255.073-.5.137-.755.209a4.257,4.257,0,0,0-1.529,1.338c-.528.692-1.3,2.12-2.066,2.493-.064.2,1.3,1.684,1.529,1.975C11.722,8,13.324,9.956,14.935,11.9c.3.382,1.374,2.048,2,1.856.764-.237.373-2.193.519-3.1.127-3.185.255-6.361.373-9.546-.473-.082-.937-.173-1.411-.255A10.273,10.273,0,0,0,13.051.027a.56.56,0,0,1-.118.009m9.382,0C20.877.291,19.539,1.1,18.056,1.092q.191,4.723.373,9.455c.127.837-.182,2.794.355,3.149.7.464,1.984-1.538,2.3-1.947q3.126-3.795,6.252-7.6c-.355-.437-.828-.783-1.174-1.247-.683-.91-1.729-2.9-3.44-2.9a2.077,2.077,0,0,0-.41.036" transform="translate(0.049)"/>
    </clipPath>
    <radialGradient id="radial-gradient" cx="0.504" cy="0.681" r="0.811" gradientTransform="matrix(0.603, 0, 0, -1, -0.627, 5.487)" gradientUnits="objectBoundingBox">
      <stop offset="0" stop-color="#ffe100"/>
      <stop offset="1" stop-color="#f08300"/>
    </radialGradient>
  </defs>
  <g id="logo" transform="translate(0.696 0.621)">
    <path id="路径_1160" data-name="路径 1160" d="M9.276,5.421c1.476-1.079,2.309-3.558,4.078-4.135,1.665-.53,3.69.918,5.535.984h.274c1.845-.066,3.9-1.514,5.554-.984,1.779.568,2.6,3.056,4.078,4.135l.218.142C30.546,6.519,33,6.576,34.047,8c1.088,1.486.331,3.974.9,5.762l.095.255c.672,1.665,2.64,3.2,2.64,5.062s-2.11,3.378-2.668,5.053l-.1.255c-.577,1.8.3,4.22-.795,5.706s-3.738,1.476-5.233,2.564c-1.5,1.069-2.318,3.577-4.1,4.144-1.7.549-3.8-.994-5.677-.994-1.949.009-4.107,1.523-5.867.956-1.8-.587-2.621-3.113-4.116-4.211S5,31.442,3.91,29.947c-1.031-1.438-.322-3.8-.776-5.573l-.066-.237C2.5,22.463.4,20.949.4,19.085S2.368,15.7,3.04,14.023l.095-.255C3.7,11.979,2.945,9.49,4.033,8c1.05-1.429,3.5-1.486,5.034-2.432Z" transform="translate(-1.096 -1.791)" fill="#fff"/>
    <g id="组_2461" data-name="组 2461" transform="translate(-0.049)">
      <g id="组_2460" data-name="组 2460" clip-path="url(#clip-path)">
        <rect id="矩形_8246" data-name="矩形 8246" width="36.774" height="22.187" transform="translate(-0.542)" fill="url(#radial-gradient)"/>
      </g>
    </g>
    <path id="路径_1162" data-name="路径 1162" d="M44.688,198.3q7.658,2.17,15.334,4.35v.027c-.464,1.4.073,3.695-.473,5.005-.792,1.929-3.7,1.838-5.342,2.939-1.574,1.065-2.02,3.458-4.041,4.068-2,.6-3.722-1.365-5.833-.992-1.374.246-3.6,1.374-5.078.965-1.975-.555-2.475-2.848-3.9-3.977-1.511-1.192-4.341-1.165-5.36-2.848-.519-.846-.446-2.257-.446-3.622-.045-.537-.091-1.065-.146-1.6q7.644-2.143,15.288-4.314" transform="translate(-26.769 -180.254)" fill="#c7000b" fill-rule="evenodd"/>
  </g>
</svg>
